<svg width="126.000000" height="32.000000" viewBox="0 0 126 32" fill="none" xmlns="http://www.w3.org/2000/svg" xmlns:xlink="http://www.w3.org/1999/xlink">
	<desc>
			Created with Pixso.
	</desc>
	<defs>
		<clipPath id="clip99_622">
			<rect id="coffee" width="32.000000" height="32.000000" fill="white" fill-opacity="0"/>
		</clipPath>
	</defs>
	<path id="iMovie" d="M75.15 23.67Q76.48 24.15 77.99 24.15Q79.51 24.15 80.84 23.66Q81.42 23.45 81.97 23.14Q82.79 22.68 83.45 22.06Q84.25 21.31 84.83 20.31Q85.07 19.9 85.25 19.46Q85.89 17.98 85.89 16.23Q85.89 14.42 85.22 12.9Q85.05 12.52 84.84 12.16Q84.31 11.23 83.57 10.52Q82.87 9.84 81.98 9.34Q81.4 9.02 80.79 8.8Q79.47 8.33 77.99 8.33Q76.48 8.33 75.15 8.81Q74.56 9.03 73.99 9.34Q73.15 9.81 72.47 10.45Q71.68 11.19 71.11 12.16Q70.87 12.56 70.69 12.98Q70.05 14.46 70.05 16.23Q70.05 17.97 70.67 19.44Q70.86 19.89 71.11 20.31Q71.69 21.3 72.5 22.06Q73.17 22.68 73.99 23.14Q74.56 23.45 75.15 23.67ZM45.12 24L45.12 8.55L41.36 8.55L41.36 24L45.12 24ZM66.66 24L66.66 8.55L62.24 8.55L57.95 19.24L53.61 8.55L49.17 8.55L49.17 24L52.93 24L52.93 14.71L56.41 24L59.44 24L62.9 14.74L62.9 24L66.66 24ZM98.32 24L103.79 8.55L99.81 8.55L95.96 20.21L92.13 8.55L88.13 8.55L93.61 24L98.32 24ZM110.44 24L110.44 8.55L106.68 8.55L106.68 24L110.44 24ZM118.25 14.69L118.25 11.57L123.95 11.57L123.95 8.55L114.49 8.55L114.49 24L123.95 24L123.95 20.98L118.25 20.98L118.25 17.59L123.29 17.59L123.29 14.69L118.25 14.69ZM80.11 20.18Q79.21 20.72 77.99 20.72Q76.71 20.72 75.78 20.14Q75.36 19.88 75.01 19.5Q74.88 19.35 74.76 19.19Q73.9 18.03 73.9 16.23Q73.9 14.37 74.8 13.2Q74.9 13.07 75.01 12.95Q75.35 12.58 75.76 12.33Q76.69 11.74 77.99 11.74Q79.23 11.74 80.14 12.29Q80.58 12.56 80.95 12.96Q81.08 13.11 81.2 13.26Q82.06 14.42 82.06 16.23Q82.06 17.97 81.24 19.13Q81.11 19.32 80.95 19.49Q80.57 19.9 80.11 20.18Z" fill="#FFFFFF" fill-opacity="1.000000" fill-rule="evenodd"/>
	<rect id="coffee" width="32.000000" height="32.000000" fill="#FFFFFF" fill-opacity="0"/>
	<g clip-path="url(#clip99_622)">
		<path id="Vector" d="M24 10.66L25.33 10.66C26.74 10.66 28.1 11.22 29.1 12.22C30.1 13.22 30.66 14.58 30.66 16C30.66 17.41 30.1 18.77 29.1 19.77C28.1 20.77 26.74 21.33 25.33 21.33L24 21.33" stroke="#FFFFFF" stroke-opacity="1.000000" stroke-width="2.000000" stroke-linejoin="round" stroke-linecap="round"/>
		<path id="Vector" d="M2.66 10.66L24 10.66L24 22.66C24 24.08 23.43 25.43 22.43 26.43C21.43 27.43 20.08 28 18.66 28L8 28C6.58 28 5.22 27.43 4.22 26.43C3.22 25.43 2.66 24.08 2.66 22.66L2.66 10.66Z" fill="#FFFFFF" fill-opacity="1.000000" fill-rule="nonzero"/>
		<path id="Vector" d="M24 10.66L24 22.66C24 24.08 23.43 25.43 22.43 26.43C21.43 27.43 20.08 28 18.66 28L8 28C6.58 28 5.22 27.43 4.22 26.43C3.22 25.43 2.66 24.08 2.66 22.66L2.66 10.66L24 10.66Z" stroke="#FFFFFF" stroke-opacity="1.000000" stroke-width="2.000000" stroke-linejoin="round"/>
		<path id="Vector" d="M8 1.33L8 5.33" stroke="#FFFFFF" stroke-opacity="1.000000" stroke-width="2.000000" stroke-linejoin="round" stroke-linecap="round"/>
		<path id="Vector" d="M13.33 1.33L13.33 5.33" stroke="#7900C2" stroke-opacity="1.000000" stroke-width="2.000000" stroke-linejoin="round" stroke-linecap="round"/>
		<path id="Vector" d="M18.66 1.33L18.66 5.33" stroke="#FFFFFF" stroke-opacity="1.000000" stroke-width="2.000000" stroke-linejoin="round" stroke-linecap="round"/>
	</g>
</svg>
